<svg xmlns="http://www.w3.org/2000/svg" fill-rule="evenodd" stroke-linejoin="round" stroke-miterlimit="2" clip-rule="evenodd" viewBox="0 0 80 80">
  <circle cx="40" cy="40" r="40" fill="#4d1f44"/>
  <path fill="#fff" fill-rule="nonzero" d="M66.86 27.1a7.14 7.14 0 0 0-3.5-4.94 9.96 9.96 0 0 0-2.3-.94c-.87-.25-1.84-.41-2.94-.5 0-.42-.01-.76-.03-1.02a1.5 1.5 0 0 0-.14-.6.62.62 0 0 0-.33-.3 1.95 1.95 0 0 0-.6-.07c-.3 0-.62.05-.95.16a4.23 4.23 0 0 0-1.76 1.13c-.24.26-.39.54-.46.85-1.23.19-2.43.57-3.39 1.11a17.11 17.11 0 0 0-3.56 2.58c-1.22 1.14-1.7 1.96-2.3 2.5-.46.43-1.03 1-1.51 1.33-.48.32-.98.6-1.48.86a44.23 44.23 0 0 0 1.29-3.86c.2-.72.42-1.47.61-2.25a88.2 88.2 0 0 0 1.06-4.65 54.72 54.72 0 0 0 .63-4.21c.06-.63.1-1.2.1-1.7 0-.99-.1-1.86-.31-2.59a4.69 4.69 0 0 0-.93-1.83 3.66 3.66 0 0 0-1.58-1.08 6.57 6.57 0 0 0-2.24-.35c-.8 0-1.56.11-2.3.33-.75.22-1.46.53-2.13.9-.68.39-1.32.84-1.93 1.37a15.38 15.38 0 0 0-4.04 5.5c-.28.66-.5 1.3-.64 1.92-.16.62-.23 1.2-.23 1.73 0 .54.06 1.05.2 1.49.13.44.3.83.54 1.14.24.3.52.56.85.73.35.17.72.26 1.14.26a3.57 3.57 0 0 0 1.32-.26 23.2 23.2 0 0 1 2.9-7.66c.36-.5.72-.93 1.1-1.25.38-.32.76-.47 1.13-.47.24 0 .4.1.5.33.08.22.12.51.12.88 0 .36-.03.8-.08 1.33-.05.52-.13 1.12-.23 1.77-.1.66-.23 1.34-.37 2.08a84.92 84.92 0 0 1-2.3 9.27c-.23.71-.45 1.38-.68 1.98a35.03 35.03 0 0 1-4.8-.89l-1.84-.5c-.6-.18-1.18-.37-1.74-.56-.56-.2-1.06-.4-1.5-.58 0-.3-.03-.58-.1-.83a2.32 2.32 0 0 0-.3-.67c-.13-.2-.3-.34-.51-.45a1.56 1.56 0 0 0-.75-.16c-.57 0-1.12.11-1.68.34-.54.22-1.03.56-1.47 1.03a5.2 5.2 0 0 0-1.03 1.82 9.09 9.09 0 0 0 .9 7.33 9.15 9.15 0 0 0 3.58 3.37 11.35 11.35 0 0 0 5.36 1.3c1.17 0 2.28-.16 3.3-.46 1.03-.3 1.99-.75 2.88-1.37.89-.61 1.72-1.38 2.49-2.31.76-.93 1.47-2.03 2.12-3.31.86-.35 1.67-.73 2.42-1.18.76-.44 1.42-.92 2.07-1.37 1.2-.82 1.17-.95 2.88-2.17.84-.6 1.51-1.07 1.98-1.27a14.71 14.71 0 0 1 3.01-.91c-.15.63-.3 1.33-.49 2.07l-.54 2.34-.59 2.5a2327.05 2327.05 0 0 0-1.2 5c-.2.8-.4 1.56-.6 2.28a18.07 18.07 0 0 1-1.46 3.92c-.37.66-.77 1.07-1.2 1.23.06-.13.13-.25.18-.38a8.26 8.26 0 0 0 .58-3.06c0-.64-.08-1.23-.24-1.78a3.63 3.63 0 0 0-.77-1.4c-.37-.4-.82-.71-1.4-.93a5.78 5.78 0 0 0-2.07-.33c-.82 0-1.65.14-2.51.42-.85.28-1.7.68-2.54 1.2-.85.5-1.68 1.13-2.48 1.86-.8.72-1.57 1.53-2.28 2.42a24.33 24.33 0 0 0-3.55 6.07c-.43 1.1-.77 2.25-1.01 3.43a17.59 17.59 0 0 0-.36 3.54c0 1.2.15 2.3.46 3.26.31.97.79 1.77 1.42 2.42a3.75 3.75 0 0 0-1.82 1.42c-.2.32-.36.65-.46 1.02-.1.37-.15.76-.15 1.18a6.14 6.14 0 0 0 2.46 4.89c.53.4 1.11.74 1.76 1.02.64.28 1.35.5 2.11.65.76.15 1.56.22 2.4.22.88 0 1.69-.11 2.42-.32a7.27 7.27 0 0 0 3.51-2.27 11.47 11.47 0 0 0 2.02-3.76c.23-.72.43-1.44.57-2.18A23.87 23.87 0 0 0 45 59.8l.15-1.88.62-1.3a13.73 13.73 0 0 0 .78-2.08c.07-.3.11-.6.11-.9 0-.29-.11-.55-.34-.78a2.8 2.8 0 0 0-.92-.59 5.76 5.76 0 0 0-1.3-.36 9.05 9.05 0 0 0-1.48-.12c-.46 0-.83.05-1.12.15-.3.1-.53.25-.71.48-.19.22-.33.49-.42.83-.09.34-.16.75-.2 1.23-.06.47-.1 1.02-.13 1.65l-.11 2.1c-.56.27-1.12.47-1.68.61-.56.14-1.08.21-1.56.21-.46 0-.9-.07-1.27-.22-.38-.15-.7-.37-.97-.67-.27-.3-.49-.67-.63-1.13a5.05 5.05 0 0 1-.22-1.59c0-.76.07-1.55.21-2.33a18.68 18.68 0 0 1 1.41-4.56c.33-.72.69-1.4 1.06-2.04.38-.63.77-1.23 1.19-1.75.4-.53.82-.99 1.23-1.37.42-.38.83-.68 1.23-.9.4-.2.77-.32 1.12-.32.17 0 .3.03.43.1.12.05.22.16.3.3.07.14.12.33.16.56a5.4 5.4 0 0 1 0 1.79l-.07.38c-.23.26-.43.57-.57.9-.14.35-.21.7-.21 1.06 0 .56.1 1.06.29 1.51.19.46.46.85.82 1.17.37.32.8.57 1.3.75.51.19 1.09.27 1.72.27a7.62 7.62 0 0 0 5.28-2.08c.75-.68 1.42-1.52 2.03-2.5.6-.99 1.12-2.13 1.58-3.41.74-.03 1.5-.15 2.26-.35a14.96 14.96 0 0 0 6.44-3.8 14.54 14.54 0 0 0 3.07-4.3c.37-.8.66-1.65.87-2.53a11.7 11.7 0 0 0 .1-4.9zm-34.53 8.1c-.62.5-1.33.76-2.12.76-.57 0-1.11-.11-1.63-.35a4.93 4.93 0 0 1-1.42-.97c-.43-.42-.8-.93-1.11-1.51a7.7 7.7 0 0 1-.74-1.94c.38.17.8.33 1.27.48a32.94 32.94 0 0 0 6.1 1.3c.48.06.91.09 1.3.1-.47.9-1.01 1.62-1.65 2.12zm1.94 28.83a7.77 7.77 0 0 0 2.86-.55 11.75 11.75 0 0 0 2.7-1.5l-.02 1.62c0 .53-.01 1.02-.03 1.48-.02.46-.07.88-.13 1.26-.07.38-.18.7-.34.97-.16.28-.39.49-.68.64-.29.15-.65.22-1.1.22-.57 0-1.11-.11-1.63-.32a5.91 5.91 0 0 1-1.5-.9c-.46-.4-.9-.86-1.3-1.42-.38-.55-.75-1.15-1.06-1.8.65.2 1.4.3 2.23.3zm26.82-31.22a8.93 8.93 0 0 1-1.37 3.32c-.32.46-.7.87-1.1 1.2-.42.35-.86.6-1.35.8-.48.19-.98.28-1.52.28h-.23c-.1 0-.19-.01-.28-.03a119.46 119.46 0 0 0 1.08-6.43 203.59 203.59 0 0 0 .76-5.61c.84.16 1.53.38 2.08.68.54.3.96.65 1.28 1.05.32.4.54.83.66 1.32.12.48.18.97.18 1.48 0 .66-.06 1.31-.2 1.94z"/>
</svg>
